<?xml version="1.0" encoding="UTF-8" standalone="no"?>
<svg
   xmlns:osb="http://www.openswatchbook.org/uri/2009/osb"
   xmlns:dc="http://purl.org/dc/elements/1.1/"
   xmlns:cc="http://creativecommons.org/ns#"
   xmlns:rdf="http://www.w3.org/1999/02/22-rdf-syntax-ns#"
   xmlns:svg="http://www.w3.org/2000/svg"
   xmlns="http://www.w3.org/2000/svg"
   xmlns:sodipodi="http://sodipodi.sourceforge.net/DTD/sodipodi-0.dtd"
   xmlns:inkscape="http://www.inkscape.org/namespaces/inkscape"
   id="Layer_1"
   style="enable-background:new 0 0 24 24;"
   version="1.1"
   viewBox="0 0 24 24"
   xml:space="preserve"
   inkscape:version="0.91 r13725"
   sodipodi:docname="edit.svg"><metadata
     id="metadata3410"><rdf:RDF><cc:Work
         rdf:about=""><dc:format>image/svg+xml</dc:format><dc:type
           rdf:resource="http://purl.org/dc/dcmitype/StillImage" /></cc:Work></rdf:RDF></metadata><defs
     id="defs3408"><linearGradient
       id="linearGradient4212"
       osb:paint="solid"><stop
         style="stop-color:#000000;stop-opacity:1;"
         offset="0"
         id="stop4214" /></linearGradient></defs><sodipodi:namedview
     pagecolor="#ffffff"
     bordercolor="#666666"
     borderopacity="1"
     objecttolerance="10"
     gridtolerance="10"
     guidetolerance="10"
     inkscape:pageopacity="0"
     inkscape:pageshadow="2"
     inkscape:window-width="1871"
     inkscape:window-height="1056"
     id="namedview3406"
     showgrid="false"
     inkscape:zoom="37.916667"
     inkscape:cx="7.1868132"
     inkscape:cy="12"
     inkscape:window-x="1415"
     inkscape:window-y="535"
     inkscape:window-maximized="1"
     inkscape:current-layer="Layer_1" /><path
     d="M19.607,18.746c0,0.881-0.716,1.624-1.597,1.624H5.231c-0.881,0-1.597-0.743-1.597-1.624V5.967  c0-0.881,0.716-1.571,1.597-1.571h7.454V3.332H5.231c-1.468,0-2.662,1.168-2.662,2.636v12.778c0,1.468,1.194,2.688,2.662,2.688  h12.778c1.468,0,2.662-1.221,2.662-2.688v-7.428h-1.065V18.746z"
     id="path3402"
     style="fill:#4285f4;fill-opacity:1" /><path
     d="M20.807,3.17c-0.804-0.805-2.207-0.805-3.012,0l-7.143,7.143c-0.068,0.068-0.117,0.154-0.14,0.247L9.76,13.571  c-0.045,0.181,0.008,0.373,0.14,0.506c0.101,0.101,0.237,0.156,0.376,0.156c0.043,0,0.086-0.005,0.129-0.016l3.012-0.753  c0.094-0.023,0.179-0.072,0.247-0.14l7.143-7.143c0.402-0.402,0.624-0.937,0.624-1.506S21.21,3.572,20.807,3.17z M13.016,12.467  l-2.008,0.502l0.502-2.008l5.909-5.909l1.506,1.506L13.016,12.467z M20.054,5.428l-0.376,0.376l-1.506-1.506l0.376-0.376  c0.402-0.402,1.104-0.402,1.506,0c0.201,0.201,0.312,0.468,0.312,0.753C20.366,4.96,20.255,5.227,20.054,5.428z"
     id="path3404"
     style="fill-opacity:1;fill:#ffc107" /></svg>