<?xml version="1.0" encoding="UTF-8" standalone="no"?>
<svg
   width="100%"
   height="100%"
   xmlns:osb="http://www.openswatchbook.org/uri/2009/osb"
   xmlns:dc="http://purl.org/dc/elements/1.1/"
   xmlns:cc="http://creativecommons.org/ns#"
   xmlns:rdf="http://www.w3.org/1999/02/22-rdf-syntax-ns#"
   xmlns:svg="http://www.w3.org/2000/svg"
   xmlns="http://www.w3.org/2000/svg"
   xmlns:sodipodi="http://sodipodi.sourceforge.net/DTD/sodipodi-0.dtd"
   xmlns:inkscape="http://www.inkscape.org/namespaces/inkscape"
   id="Layer_1"
   style="enable-background:new 0 0 24 24;"
   version="1.1"
   viewBox="0 0 24 24"
   xml:space="preserve"
   inkscape:version="0.92.2 (5c3e80d, 2017-08-06)"
   sodipodi:docname="onlyoffice-icon.svg"><metadata
     id="metadata3410"><rdf:RDF><cc:Work
         rdf:about=""><dc:format>image/svg+xml</dc:format><dc:type
           rdf:resource="http://purl.org/dc/dcmitype/StillImage" /><dc:title /></cc:Work></rdf:RDF></metadata><defs
     id="defs3408"><linearGradient
       id="linearGradient4212"
       osb:paint="solid"><stop
         style="stop-color:#000000;stop-opacity:1;"
         offset="0"
         id="stop4214" /></linearGradient></defs><sodipodi:namedview
     pagecolor="#ffffff"
     bordercolor="#666666"
     borderopacity="1"
     objecttolerance="10"
     gridtolerance="10"
     guidetolerance="10"
     inkscape:pageopacity="0"
     inkscape:pageshadow="2"
     inkscape:window-width="1920"
     inkscape:window-height="1052"
     id="namedview3406"
     showgrid="false"
     inkscape:zoom="26.811132"
     inkscape:cx="10.061238"
     inkscape:cy="11.668949"
     inkscape:window-x="1360"
     inkscape:window-y="0"
     inkscape:window-maximized="1"
     inkscape:current-layer="Layer_1"
     inkscape:measure-start="7.72067,13.6883"
     inkscape:measure-end="7.72067,13.7256" /><path
     d="m 18.03294,16.158172 c 0,0.628785 -0.543268,1.15908 -1.211732,1.15908 H 7.1250677 c -0.6684638,0 -1.211733,-0.530295 -1.211733,-1.15908 V 7.0375265 c 0,-0.6287885 0.5432692,-1.121256 1.211733,-1.121256 H 12.780833 V 5.1568711 H 7.1250677 c -1.1138535,0 -2.0198078,0.8336264 -2.0198078,1.8813689 v 9.119932 c 0,1.047742 0.9059543,1.918481 2.0198078,1.918481 h 9.6953813 c 1.113853,0 2.019808,-0.871455 2.019808,-1.918481 v -5.301524 h -0.808075 v 5.301524 z"
     id="path3402"
     style="fill:#2196f3;fill-opacity:1;stroke:#2196f3;stroke-width:0.83343124;stroke-miterlimit:4;stroke-dasharray:none;stroke-opacity:1"
     inkscape:connector-curvature="0" /><path
     d="m 18.943447,5.0349015 c -0.610039,-0.6060836 -1.674574,-0.6060836 -2.285372,0 l -5.419793,5.3779565 c -0.0516,0.0512 -0.08877,0.115947 -0.106225,0.185966 l -0.570585,2.266978 c -0.03414,0.136276 0.0061,0.280832 0.106227,0.380967 0.07663,0.07605 0.179825,0.117453 0.285292,0.117453 0.03263,0 0.06525,-0.0037 0.09788,-0.01204 l 2.285373,-0.566932 c 0.07132,-0.01731 0.135816,-0.05421 0.187412,-0.105406 l 5.419792,-5.37796 c 0.305021,-0.3026654 0.473464,-0.7054663 0.473464,-1.1338657 0,-0.4283995 -0.167685,-0.8304475 -0.473464,-1.1331128 z m -5.911466,6.9997015 -1.523582,0.377955 0.380896,-1.511822 4.483488,-4.4488788 1.142686,1.1338657 z M 18.372104,6.7349472 18.086812,7.0180371 16.944126,5.8841714 17.229419,5.6010815 c 0.305019,-0.3026654 0.837665,-0.3026654 1.142685,0 0.15251,0.1513326 0.236732,0.3523566 0.236732,0.5669328 0,0.2145761 -0.08422,0.4156002 -0.236732,0.5669329 z"
     id="path3404"
     style="fill:#ffc107;fill-opacity:1;stroke-width:0.1;stroke-miterlimit:4;stroke-dasharray:none;stroke:#ffc107;stroke-opacity:1"
     inkscape:connector-curvature="0" /></svg>